<svg xmlns="http://www.w3.org/2000/svg" viewBox="0 0 800 400" fill="none">
  <g stroke="#ffffff" stroke-width="1" opacity="0.5">
    <path d="M20 320 C 140 260, 180 120, 300 90 S 480 140, 560 80 S 700 40, 780 60" />
    <path d="M40 120 C 160 180, 260 200, 360 170 S 520 60, 640 110 S 740 220, 790 200" />
    <line x1="80" y1="330" x2="220" y2="240" />
    <line x1="220" y1="240" x2="300" y2="95" />
    <line x1="300" y1="95" x2="430" y2="150" />
    <line x1="430" y1="150" x2="560" y2="85" />
    <line x1="560" y1="85" x2="690" y2="130" />
    <line x1="690" y1="130" x2="780" y2="65" />
    <line x1="120" y1="140" x2="260" y2="195" />
    <line x1="260" y1="195" x2="380" y2="165" />
    <line x1="380" y1="165" x2="500" y2="90" />
    <line x1="500" y1="90" x2="620" y2="115" />
  </g>
  <g fill="#ffffff">
    <circle cx="80" cy="330" r="4.5" />
    <circle cx="220" cy="240" r="3.5" />
    <circle cx="300" cy="95" r="5.5" />
    <circle cx="430" cy="150" r="3.5" />
    <circle cx="560" cy="85" r="5" />
    <circle cx="690" cy="130" r="3.5" />
    <circle cx="780" cy="65" r="4.5" />
    <circle cx="120" cy="140" r="3.5" />
    <circle cx="260" cy="195" r="4" />
    <circle cx="380" cy="165" r="3" />
    <circle cx="500" cy="90" r="4" />
    <circle cx="620" cy="115" r="3.5" />
  </g>
</svg>
